<?xml version="1.0" encoding="iso-8859-1"?>
<!-- Generator: Adobe Illustrator 19.0.0, SVG Export Plug-In . SVG Version: 6.00 Build 0)  -->
<svg version="1.1" id="Capa_1" xmlns="http://www.w3.org/2000/svg" xmlns:xlink="http://www.w3.org/1999/xlink" x="0px" y="0px"
	 viewBox="0 0 512 512" style="enable-background:new 0 0 512 512;" xml:space="preserve">
<path style="fill:#FF9C41;" d="M26,492V52c0-11.046,8.954-20,20-20h370.216c11.046,0,20,8.954,20,20v440c0,11.046-8.954,20-20,20H46
	C34.954,512,26,503.046,26,492z"/>
<path style="fill:#FF8638;" d="M436.216,52v440c0,11.046-8.916,20-19.913,20h-29.372c10.998,0,20.486-8.954,20.486-20l-0.573-440
	c0-11.046-8.916-20-19.913-20h29.372C427.301,32,436.216,40.954,436.216,52z"/>
<path style="fill:#FFB45A;" d="M26,450V20C26,8.954,34.954,0,46,0h370.216c11.046,0,20,8.954,20,20v430c0,11.046-8.954,20-20,20H46
	C34.954,470,26,461.046,26,450z"/>
<path style="fill:#FF9C41;" d="M436.216,20v430c0,11.046-8.916,20-19.913,20h-8.961V63.333c0-1.512-0.181-2.979-0.498-4.395V20
	c0-11.046-8.916-20-19.913-20h29.372C427.301,0,436.216,8.954,436.216,20z"/>
<path style="fill:#FFBE69;" d="M390.416,225c0,96.65-71.324,175-159.307,175S71.801,321.65,71.801,225S143.125,50,231.108,50
	S390.416,128.35,390.416,225z"/>
<path style="fill:#97523D;" d="M202.623,386.877c0.831,6.673-4.35,12.567-11.046,12.567H127.74c-6.696,0-11.877-5.894-11.046-12.567
	l5.426-43.594C124.486,324.269,140.58,310,159.659,310l0,0c19.079,0,35.172,14.269,37.539,33.283L202.623,386.877z M345.523,386.877
	l-5.426-43.594C337.731,324.269,321.637,310,302.558,310l0,0c-19.079,0-35.172,14.269-37.539,33.283l-5.426,43.594
	c-0.831,6.673,4.35,12.567,11.046,12.567h63.837C341.173,399.444,346.353,393.55,345.523,386.877z"/>
<path style="fill:#B46E53;" d="M274.01,348.037l6.201,49.822c0.949,7.626-4.972,14.363-12.624,14.363H194.63
	c-7.653,0-13.573-6.736-12.624-14.363l6.201-49.822c2.705-21.73,21.097-38.037,42.901-38.037l0,0
	C252.913,310,271.305,326.307,274.01,348.037z"/>
<path style="fill:#C97D5D;" d="M261.862,322.916c-8.787,28.557-35.279,49.306-66.598,49.306c-3.389,0-6.717-0.256-9.977-0.725
	l2.92-23.46c2.705-21.73,21.097-38.037,42.901-38.037l0,0C243.062,310,253.982,314.908,261.862,322.916z"/>
<path style="fill:#FFED91;" d="M249.03,250c0,11.046-8.916,20-19.913,20s-19.913-8.954-19.913-20s8.916-20,19.913-20
	S249.03,238.954,249.03,250z M129.55,170c-10.998,0-19.913,8.954-19.913,20s8.916,20,19.913,20s19.913-8.954,19.913-20
	S140.548,170,129.55,170z M194.268,100c-8.248,0-14.935,6.716-14.935,15s6.687,15,14.935,15s14.935-6.716,14.935-15
	S202.517,100,194.268,100z M338.641,205c-8.248,0-14.935,6.716-14.935,15s6.687,15,14.935,15s14.935-6.716,14.935-15
	S346.889,205,338.641,205z"/>
<path style="fill:#CE4D48;" d="M279.078,0l157.139,157.822v85.652L193.797,0H279.078z"/>
<path style="fill:#F15950;" d="M367.88,122.471c0,15.422-9.151,29.36-23.265,35.436l-71.334,30.704
	c-11.135,4.793-23.521-3.41-23.521-15.577V71.909c0-12.167,12.387-20.37,23.521-15.577l71.334,30.704
	C358.729,93.111,367.88,107.049,367.88,122.471z M462.479,56.332l-71.334,30.704c-14.114,6.075-23.265,20.013-23.265,35.436
	s9.151,29.36,23.265,35.436l71.334,30.704c11.135,4.793,23.521-3.41,23.521-15.577V71.909C486,59.742,473.613,51.539,462.479,56.332
	z"/>
<path style="fill:#DD5146;" d="M486,71.909v101.125c0,12.167-12.387,20.37-23.521,15.577l-14.453-6.221
	c1.749-2.64,2.794-5.83,2.794-9.356V71.909c0-3.526-1.045-6.716-2.794-9.356l14.453-6.221C473.613,51.539,486,59.742,486,71.909z"/>
<path style="fill:#B04B42;" d="M367.88,158.061c-19.571,0-35.436-15.934-35.436-35.59s15.865-35.59,35.436-35.59
	s35.436,15.934,35.436,35.59S387.451,158.061,367.88,158.061z"/>
<g>
</g>
<g>
</g>
<g>
</g>
<g>
</g>
<g>
</g>
<g>
</g>
<g>
</g>
<g>
</g>
<g>
</g>
<g>
</g>
<g>
</g>
<g>
</g>
<g>
</g>
<g>
</g>
<g>
</g>
</svg>
