<?xml version="1.0" encoding="iso-8859-1"?>
<!-- Generator: Adobe Illustrator 19.0.0, SVG Export Plug-In . SVG Version: 6.00 Build 0)  -->
<svg version="1.1" id="Capa_1" xmlns="http://www.w3.org/2000/svg" xmlns:xlink="http://www.w3.org/1999/xlink" x="0px" y="0px"
	 viewBox="0 0 512 512" style="enable-background:new 0 0 512 512;" xml:space="preserve">
<g>
	<rect x="105.931" y="44.138" style="fill:#EACA6F;" width="300.138" height="70.621"/>
	<path style="fill:#BFA057;" d="M423.724,441.379h0.794c9.299,0.03,16.831,7.561,16.861,16.861v36.899
		c-0.03,9.299-7.561,16.83-16.861,16.861H87.481c-9.299-0.03-16.83-7.561-16.861-16.861V458.24
		c0.03-9.299,7.561-16.831,16.861-16.861h0.794V176.552c-9.739-0.029-17.627-7.916-17.655-17.655v-35.31
		c0.028-9.739,7.916-17.627,17.655-17.655h335.448c9.739,0.028,17.627,7.916,17.655,17.655v35.31
		c-0.07,9.721-7.934,17.585-17.655,17.655V441.379z"/>
	<path style="fill:#5496CE;" d="M97.103,0h317.793c9.751,0,17.655,7.904,17.655,17.655v26.483c0,4.875-3.952,8.828-8.828,8.828
		H88.276c-4.875,0-8.828-3.952-8.828-8.828V17.655C79.448,7.904,87.353,0,97.103,0z"/>
	<path style="fill:#FAEDBD;" d="M167.724,229.517h176.552c9.751,0,17.655,7.904,17.655,17.655v97.103
		c0,9.751-7.905,17.655-17.655,17.655H167.724c-9.751,0-17.655-7.905-17.655-17.655v-97.103
		C150.069,237.422,157.973,229.517,167.724,229.517z"/>
	<g>
		<path style="fill:#BBB084;" d="M317.793,282.483H194.207c-4.875,0-8.828-3.952-8.828-8.828s3.952-8.828,8.828-8.828h123.586
			c4.875,0,8.828,3.952,8.828,8.828S322.668,282.483,317.793,282.483z"/>
		<path style="fill:#BBB084;" d="M317.793,326.621H194.207c-4.875,0-8.828-3.952-8.828-8.828s3.952-8.828,8.828-8.828h123.586
			c4.875,0,8.828,3.952,8.828,8.828S322.668,326.621,317.793,326.621z"/>
	</g>
	<g>
		<path style="fill:#935847;" d="M150.069,185.379c-0.015,4.869-3.958,8.813-8.828,8.828H88.276v-17.655h52.966
			C146.111,176.566,150.054,180.51,150.069,185.379z"/>
		<path style="fill:#935847;" d="M423.724,176.552v17.655h-97.103c-4.875,0-8.828-3.952-8.828-8.828
			c0-4.875,3.952-8.828,8.828-8.828H423.724z"/>
		<path style="fill:#935847;" d="M194.207,432.552c-0.015,4.869-3.958,8.813-8.828,8.828H88.276v-17.655h97.103
			C190.249,423.739,194.192,427.682,194.207,432.552L194.207,432.552z"/>
		<path style="fill:#935847;" d="M423.724,423.724v17.655h-26.483c-4.875,0-8.828-3.952-8.828-8.828s3.952-8.828,8.828-8.828
			H423.724z"/>
	</g>
</g>
<g>
</g>
<g>
</g>
<g>
</g>
<g>
</g>
<g>
</g>
<g>
</g>
<g>
</g>
<g>
</g>
<g>
</g>
<g>
</g>
<g>
</g>
<g>
</g>
<g>
</g>
<g>
</g>
<g>
</g>
</svg>
